<?xml version="1.0" encoding="UTF-8"?>
<svg id="Layer_1" xmlns="http://www.w3.org/2000/svg" version="1.1" viewBox="0 0 720 720">
  <!-- Generator: Adobe Illustrator 30.4.0, SVG Export Plug-In . SVG Version: 2.1.4 Build 226)  -->
  <defs>
    <style>
      .st0 {
        fill: #ce0e2d;
      }

      .st1 {
        fill: #16191e;
      }

      .st2 {
        fill: #fff;
      }
    </style>
  </defs>
  <g>
    <path class="st0" d="M393.68,363.83l2.88-1.09c23.91-9.01,35.53-22.62,35.53-41.61,0-13.15-5.26-23.87-16.07-32.78-11.45-9.29-27.21-14-46.81-14,0,0-112,0-116.72,0v24.81c.73,0,5.94,0,13.59,0v121.7h-13.59v24.77h79.6v-24.77h-14.05v-52.44h28.85l33.01,52.44h-18.57v24.77h86.18v-24.77h-16.3l-37.54-57.04ZM370.94,337.65l-.07.05c-6.14,4.8-15.21,7.24-26.95,7.24h-25.89v-45.77c17.64,0,31.93,0,31.93,0,9.97,0,17.73,2.8,23.02,8.26,3.86,3.82,5.82,8.64,5.82,14.35,0,6.14-2.65,11.48-7.86,15.87Z"/>
    <g>
      <path class="st1" d="M349.97,299.17s-14.29,0-31.93,0v45.77h25.89c11.74,0,20.8-2.43,26.95-7.24l.07-.05c5.22-4.39,7.86-9.73,7.86-15.87,0-5.7-1.96-10.52-5.82-14.35-5.29-5.47-13.05-8.26-23.02-8.26ZM367.99,333.98h-.02c-5.29,4.16-13.38,6.25-24.04,6.25h-21.18v-36.35h27.22c8.64,0,15.25,2.29,19.64,6.83l.07.07c2.97,2.95,4.42,6.54,4.42,11,0,4.72-2,8.72-6.11,12.2Z"/>
      <path class="st1" d="M433.75,416.17l-32.93-50.04c23.87-9.7,35.97-24.83,35.97-45,0-14.64-5.82-26.55-17.82-36.44-12.31-9.99-29.06-15.05-49.77-15.05h-121.42v34.2s8.54.03,13.59.03v112.29h-13.59v34.19h89.01v-34.19h-14.05v-43.02h21.55l27.08,43.02h-14.75v34.19h95.6v-34.19h-18.47ZM447.52,445.64h-86.18v-24.77h18.57l-33.01-52.44h-28.85v52.44h14.05v24.77h-79.6v-24.77h13.59v-121.7c-7.65,0-12.86,0-13.59,0v-24.81c4.72,0,116.72,0,116.72,0,19.6,0,35.36,4.71,46.81,14,10.81,8.91,16.07,19.63,16.07,32.78,0,18.99-11.62,32.6-35.53,41.61l-2.88,1.09,37.54,57.04h16.3v24.77Z"/>
    </g>
  </g>
  <g>
    <path class="st0" d="M393.68,363.83l2.88-1.09c23.91-9.01,35.53-22.62,35.53-41.61,0-13.15-5.26-23.87-16.07-32.78-11.45-9.29-27.21-14-46.81-14,0,0-112,0-116.72,0v24.81c.73,0,5.94,0,13.59,0v121.7h-13.59v24.77h79.6v-24.77h-14.05v-52.44h28.85l33.01,52.44h-18.57v24.77h86.18v-24.77h-16.3l-37.54-57.04ZM370.94,337.65l-.07.05c-6.14,4.8-15.21,7.24-26.95,7.24h-25.89v-45.77c17.64,0,31.93,0,31.93,0,9.97,0,17.73,2.8,23.02,8.26,3.86,3.82,5.82,8.64,5.82,14.35,0,6.14-2.65,11.48-7.86,15.87Z"/>
    <g>
      <path class="st2" d="M349.97,299.17s-14.29,0-31.93,0v45.77h25.89c11.74,0,20.8-2.43,26.95-7.24l.07-.05c5.22-4.39,7.86-9.73,7.86-15.87,0-5.7-1.96-10.52-5.82-14.35-5.29-5.47-13.05-8.26-23.02-8.26ZM367.99,333.98h-.02c-5.29,4.16-13.38,6.25-24.04,6.25h-21.18v-36.35h27.22c8.64,0,15.25,2.29,19.64,6.83l.07.07c2.97,2.95,4.42,6.54,4.42,11,0,4.72-2,8.72-6.11,12.2Z"/>
      <path class="st2" d="M433.75,416.17l-32.93-50.04c23.87-9.7,35.97-24.83,35.97-45,0-14.64-5.82-26.55-17.82-36.44-12.31-9.99-29.06-15.05-49.77-15.05h-121.42v34.2s8.54.03,13.59.03v112.29h-13.59v34.19h89.01v-34.19h-14.05v-43.02h21.55l27.08,43.02h-14.75v34.19h95.6v-34.19h-18.47ZM447.52,445.64h-86.18v-24.77h18.57l-33.01-52.44h-28.85v52.44h14.05v24.77h-79.6v-24.77h13.59v-121.7c-7.65,0-12.86,0-13.59,0v-24.81c4.72,0,116.72,0,116.72,0,19.6,0,35.36,4.71,46.81,14,10.81,8.91,16.07,19.63,16.07,32.78,0,18.99-11.62,32.6-35.53,41.61l-2.88,1.09,37.54,57.04h16.3v24.77Z"/>
    </g>
  </g>
</svg>