<?xml version="1.0" encoding="UTF-8"?>
<svg id="Layer_1" xmlns="http://www.w3.org/2000/svg" version="1.1" viewBox="0 0 1080 1080">
  <!-- Generator: Adobe Illustrator 30.4.0, SVG Export Plug-In . SVG Version: 2.1.4 Build 226)  -->
  <defs>
    <style>
      .st0 {
        fill: #ce0e2d;
      }

      .st1 {
        fill: #241f21;
      }
    </style>
  </defs>
  <g>
    <path class="st0" d="M257.74,503.47c0,3.98-.92,7.11-5.01,9.11-3.13,1.4-7.87,1.99-12.02,1.99-5.39,0-8.19.6-10.99-1.88l-1.08,1.99h-9.86v-13.26h10.02c0,1.89.86,3.5,2.59,4.8,1.78,1.29,3.88,1.94,6.41,1.94,1.78,0,3.29-.38,4.58-1.19,1.29-.76,1.94-1.72,1.94-2.91,0-1.83-2.26-3.51-6.79-4.96-7.71-2.64-11.8-4.1-12.45-4.37-4.58-2.21-6.84-5.01-6.84-8.36s1.72-5.98,5.17-7.87c3.02-1.56,6.52-2.37,10.67-2.37,4.74,0,7.82-.16,9.97,1.3l1.02-1.13h9.59v11.59h-9.7c-.38-1.67-1.35-3.02-2.86-3.93-1.51-1.03-3.39-1.51-5.6-1.51-1.67,0-3.07.27-4.2.86-1.02.59-1.56,1.29-1.56,2.21,0,1.51,2.32,2.96,6.95,4.37,7.11,1.99,11.37,3.5,13.04,4.42,4.69,2.32,7.01,5.34,7.01,9.16"/>
    <path class="st1" d="M219.41,514.04h8.84l1.28-2.36.6.53c2.13,1.88,4.2,1.84,7.96,1.76.8-.02,1.67-.04,2.62-.04,4.65,0,9.05-.72,11.76-1.94,3.84-1.87,4.64-4.76,4.64-8.52s-2.18-6.38-6.65-8.59c-1.06-.58-4.12-1.91-12.93-4.38-5.07-1.54-7.42-3.12-7.42-4.98,0-1.13.62-2.03,1.88-2.76,1.22-.64,2.69-.95,4.52-.95,2.38,0,4.38.55,5.96,1.62,1.47.89,2.5,2.2,2.99,3.82h8.57v-10.31h-8.67l-1.21,1.33-.46-.31c-1.79-1.21-4.38-1.2-8.32-1.19h-1.3c-4,0-7.39.75-10.38,2.3-3.25,1.78-4.83,4.17-4.83,7.3s2.18,5.7,6.48,7.78c.52.21,4.28,1.56,12.38,4.34,4.86,1.56,7.22,3.38,7.22,5.56,0,1.42-.76,2.59-2.26,3.46-1.37.85-2.98,1.27-4.9,1.27-2.66,0-4.88-.67-6.79-2.06-1.7-1.28-2.64-2.84-2.82-4.67h-8.78v11.98ZM229.02,515.31h-10.88v-14.53h11.3v.64c0,1.68.79,3.12,2.33,4.29,1.67,1.22,3.65,1.81,6.03,1.81,1.68,0,3.07-.36,4.24-1.09,1.11-.65,1.64-1.42,1.64-2.37,0-1.06-1.1-2.67-6.35-4.35-7.63-2.61-11.82-4.11-12.5-4.39-4.81-2.32-7.24-5.33-7.24-8.95s1.85-6.43,5.51-8.43c3.18-1.65,6.77-2.45,10.98-2.45h1.29c3.86-.02,6.51-.02,8.56,1.11l.86-.95h10.51v12.86h-10.85l-.11-.5c-.34-1.52-1.21-2.71-2.57-3.53-1.39-.95-3.16-1.42-5.27-1.42-1.62,0-2.9.26-3.91.79-1.08.63-1.22,1.21-1.22,1.65,0,.54.63,1.98,6.5,3.76,6.61,1.85,11.29,3.44,13.17,4.47,4.86,2.4,7.34,5.68,7.34,9.72,0,3.67-.65,7.38-5.37,9.68-2.88,1.29-7.47,2.06-12.3,2.06-.94,0-1.8.02-2.59.04-3.5.07-5.91.12-8.21-1.58l-.89,1.65Z"/>
    <path class="st0" d="M303.47,500.07c-.43,6.36-.16,7.49-5.01,10.99-4.1,2.75-8.73,3.66-14.5,3.66-7.49,0-13.37-1.89-17.63-5.71-3.88-3.5-5.82-8.08-5.82-13.74s2.1-10.46,6.25-14.07c4.2-3.61,10.78-5.49,17.36-5.49,4.26,0,10.62,1.4,11.32,1.94l.65-1.29h7.06v11.81h-9.7c-.43-1.13-2.69-4.69-9.7-4.69-2.15,0-5.98.27-8.08,2.53-2.21,2.21-3.39,4.96-3.39,8.57,0,4.47.49,7.71,3.23,9.92,2.59,1.94,15.58,3.88,16.44-4.37l11.53-.05Z"/>
    <path class="st1" d="M284.12,476.35c-6.71,0-13.05,2-16.94,5.34-4,3.48-6.03,8.05-6.03,13.59s1.89,9.91,5.61,13.27c4.1,3.68,9.88,5.55,17.2,5.55,6.12,0,10.48-1.1,14.14-3.56,4.26-3.07,4.32-4.02,4.65-9.27l.04-.56-10.3.05c-.41,2.33-1.83,4.07-4.13,5.08-4.51,1.97-11.29.63-13.25-.83-2.91-2.34-3.49-5.72-3.49-10.43,0-3.66,1.17-6.61,3.58-9.02,1.67-1.8,4.55-2.72,8.53-2.72,7.02,0,9.46,3.43,10.11,4.69h8.66v-10.53h-6.03l-.82,1.63-.61-.47c-.6-.4-6.69-1.81-10.93-1.81M283.96,515.37c-7.64,0-13.71-1.98-18.05-5.88-4-3.61-6.03-8.39-6.03-14.22s2.18-10.81,6.47-14.55c4.12-3.54,10.76-5.65,17.77-5.65,3.58,0,9,1.02,11.02,1.75l.55-1.1h8.09v13.08h-10.78l-.16-.41c-.07-.17-1.72-4.28-9.11-4.28-3.57,0-6.2.81-7.62,2.33-2.17,2.18-3.22,4.83-3.22,8.14,0,4.44.49,7.41,2.99,9.42,1.64,1.23,7.99,2.4,11.96.67,2.06-.9,3.22-2.45,3.45-4.61l.06-.57,12.79-.06-.13,1.92c-.34,5.35-.43,6.79-5.19,10.23-3.9,2.62-8.48,3.79-14.87,3.79"/>
  </g>
  <path class="st0" d="M331.69,497.05l-3.5-11.59-4.1,11.59h7.6ZM350.23,508.32l-.05,6.36h-19.08v-6.36h4.69l-2.05-6.52h-11.26l-2.43,6.52h4.69v6.36h-16.49v-6.36h3.83l8.52-25.6h-1.56v-6.41h19.94v6.41h-1.78l9.11,25.6h3.93Z"/>
  <path class="st1" d="M324.99,496.41h5.84l-2.69-8.9-3.15,8.9ZM332.55,497.69h-9.36l5.04-14.27,4.32,14.27ZM331.74,514.04h17.81l.04-5.08h-3.74l-9.56-26.88h2.05v-5.14h-18.67v5.14h1.81l-8.94,26.88h-3.65v5.08h15.22v-5.08h-4.97l2.9-7.8h12.17l2.45,7.8h-4.92v5.08ZM350.81,515.31h-20.35v-7.63h4.46l-1.65-5.25h-10.35l-1.95,5.25h4.41v7.63h-17.77v-7.63h4l8.09-24.33h-1.32v-7.69h21.22v7.69h-1.51l8.66,24.33h4.13l-.06,7.63Z"/>
  <g>
    <path class="st0" d="M381.95,487.19c0-1.13-.38-2.05-1.08-2.75-1.08-1.13-2.64-1.67-4.64-1.67h-6.2v8.94h4.85c2.42,0,4.31-.48,5.55-1.51,1.02-.81,1.51-1.83,1.51-3.01M378.01,508.26h3.77l-6.52-10.46h-5.44v10.46h3.07v6.41h-18.49v-6.41h3.02v-25.49h-3.02v-6.47h26.04c4.36,0,7.87,1.02,10.51,3.12,2.48,2.05,3.72,4.58,3.72,7.6,0,4.36-2.69,7.54-8.08,9.54l7.65,11.7h3.5l.06,6.41h-19.84l.05-6.41Z"/>
    <path class="st1" d="M370.67,491.08h4.21c2.32,0,4.05-.46,5.15-1.36.86-.68,1.28-1.5,1.28-2.52,0-.93-.3-1.71-.89-2.3-.95-1-2.32-1.48-4.18-1.48h-5.56v7.67ZM374.89,492.35h-5.49v-10.22h6.84c2.2,0,3.92.63,5.1,1.87.83.83,1.25,1.91,1.25,3.19,0,1.42-.59,2.6-1.75,3.52-1.32,1.09-3.32,1.65-5.95,1.65M378.6,514.04h18.55l-.04-5.14h-3.21l-8.28-12.65.75-.28c5.16-1.91,7.67-4.84,7.67-8.94,0-2.84-1.14-5.17-3.49-7.11-2.48-1.97-5.88-2.98-10.1-2.98h-25.4v5.19h3.02v26.77h-3.02v5.14h17.21v-5.14h-3.07v-11.73h6.44l7.32,11.73h-4.29l-.04,5.14ZM398.44,515.31h-21.12l.06-7.69h3.26l-5.73-9.18h-4.45v9.18h3.07v7.69h-19.76v-7.69h3.02v-24.22h-3.02v-7.74h26.67c4.52,0,8.19,1.1,10.91,3.26,2.63,2.17,3.96,4.9,3.96,8.1,0,4.43-2.61,7.74-7.76,9.85l7.03,10.75h3.79l.07,7.69Z"/>
  </g>
  <polygon class="st0" points="438.3 502.28 438.3 514.68 401.49 514.68 401.49 508.21 405.74 508.21 405.74 482.88 401.54 482.88 401.54 476.3 421.11 476.3 421.11 482.88 417.01 482.88 417.01 508.21 429.84 508.21 429.84 502.28 438.3 502.28"/>
  <path class="st1" d="M402.12,514.04h35.54v-11.12h-7.19v5.93h-14.1v-26.61h4.1v-5.3h-18.29v5.3h4.2v26.61h-4.26v5.19ZM438.94,515.31h-38.09v-7.74h4.26v-24.06h-4.21v-7.85h20.84v7.85h-4.1v24.06h11.55v-5.93h9.74v13.67Z"/>
  <polygon class="st0" points="482.85 503.57 482.85 514.68 442.47 514.68 442.47 507.99 446.51 507.99 446.51 482.99 442.47 482.99 442.47 476.3 482.85 476.3 482.85 487.19 473.73 487.19 473.73 482.88 458.97 482.88 458.97 491.71 470.88 491.71 470.88 498.24 458.97 498.24 458.97 508.21 473.73 508.21 473.73 503.57 482.85 503.57"/>
  <path class="st1" d="M443.11,514.04h39.1v-9.83h-7.84v4.64h-16.04v-11.25h11.91v-5.25h-11.91v-10.12h16.04v4.31h7.84v-9.61h-39.1v5.41h4.04v26.28h-4.04v5.41ZM483.48,515.31h-41.65v-7.96h4.04v-23.73h-4.04v-7.96h41.65v12.16h-10.39v-4.31h-13.49v7.56h11.91v7.8h-11.91v8.7h13.49v-4.63h10.39v12.38Z"/>
  <polygon class="st0" points="530.19 476.3 530.19 486.65 522 486.65 522 483.74 515.05 483.74 515.05 507.94 519.2 507.94 519.2 514.68 498.72 514.68 498.72 507.94 502.86 507.94 502.86 483.74 495.91 483.74 495.91 486.65 487.77 486.65 487.77 476.3 530.19 476.3"/>
  <path class="st1" d="M499.35,514.04h19.21v-5.46h-4.15v-25.48h8.23v2.91h6.92v-9.07h-41.14v9.07h6.86v-2.91h8.23v25.48h-4.15v5.46ZM519.84,515.31h-21.76v-8.01h4.15v-22.92h-5.68v2.91h-9.41v-11.62h43.69v11.62h-9.47v-2.91h-5.68v22.92h4.15v8.01Z"/>
  <path class="st0" d="M550.94,476.23v6.7h4v25.16h-4v6.59h18.95v-6.59h-3.78v-25.16h3.78v-6.7h-18.95ZM576.48,476.23v6.7h4l-14.04,11.61,13.01,13.55h-3.67v6.59h20.14v-6.59h-2.92l-13.98-14.63,12.1-10.53h3.99v-6.7h-18.63Z"/>
  <path class="st1" d="M551.56,476.85h17.72v5.47h-3.78v26.39h3.78v5.36h-17.72v-5.36h4v-26.39h-4v-5.47ZM577.1,476.85h17.4v5.47h-3.61l-12.75,11.1,14.61,15.29h2.56v5.36h-18.91v-5.36h4.5l-13.55-14.12,14.85-12.28h-5.09v-5.47ZM575.87,475.62v7.93h2.9l-12.04,9.95v-9.95h3.78v-7.93h-20.18v7.93h4v23.93h-4v7.82h20.18v-7.82h-3.78v-11.74l11.28,11.74h-2.84v7.82h21.37v-7.82h-3.27l-13.36-13.97,11.43-9.96h4.38v-7.93h-19.86Z"/>
  <polygon class="st0" points="626.35 476.23 626.35 482.71 630.78 482.71 630.73 496.27 615.77 476.23 599.74 476.23 599.74 482.87 603.3 482.87 603.3 508.31 599.74 508.36 599.74 514.68 615.66 514.68 615.66 508.31 612.32 508.31 612.32 490.27 628.95 514.68 637.96 514.68 637.96 482.71 642.77 482.71 642.77 476.23 626.35 476.23"/>
  <path class="st1" d="M626.97,476.85h15.19v5.25h-4.81v31.96h-8.08l-17.57-25.79v20.65h3.35v5.14h-14.7v-5.1l3.57-.05v-26.66h-3.57v-5.41h15.11l15.87,21.26.06-16.01h-4.43v-5.25ZM625.74,475.62v7.71h4.43l-.04,11.09-14.04-18.81h-16.96v7.87h3.57v24.21l-3.57.05v7.54h17.16v-7.6h-3.35v-15.42l15.69,23.02h9.96v-31.96h4.81v-7.71h-17.65Z"/>
  <polygon class="st0" points="646.48 476.23 646.48 482.93 651.28 482.93 651.28 507.98 646.48 507.98 646.48 514.68 667.26 514.68 667.26 507.98 662.46 507.98 662.46 482.93 667.26 482.93 667.26 476.23 646.48 476.23"/>
  <path class="st1" d="M647.09,476.85h19.56v5.47h-4.81v26.28h4.81v5.47h-19.56v-5.47h4.81v-26.28h-4.81v-5.47ZM645.86,475.62v7.93h4.81v23.82h-4.81v7.93h22.02v-7.93h-4.81v-23.82h4.81v-7.93h-22.02Z"/>
  <g>
    <path class="st0" d="M714.66,494.86v6.31l-4.16.06c0,1.78,0,3.46-.05,4.92,0,2.54-.11,5.07-.43,5.4-1.67,2.11-10.91,3.19-16.52,3.19-7.45,0-12.58-1.57-16.79-5.35-3.78-3.61-5.45-8.8-5.45-14.41s2.05-10.31,6.16-13.93c4.21-3.51,10.58-5.34,17.22-5.34,4.27,0,10.21,1.45,11.12,1.89l.59-1.3h7.02v11.71h-9.56c-.43-1.13-2.7-4.7-9.66-4.7-2,0-5.78.33-7.94,2.49-2.21,2.21-3.35,4.86-3.35,8.53,0,4.32.76,8.21,3.57,10.26,2.43,2.1,14.25,4.59,15.12-3.4h-5.67v-6.31h18.79Z"/>
    <path class="st1" d="M709.53,511.18,694.63,476.31c-6.73,0-12.86,1.9-16.83,5.2-3.93,3.47-5.93,8-5.93,13.46,0,5.85,1.82,10.68,5.26,13.97,4.04,3.63,8.94,5.18,16.37,5.18,6.46,0,14.69-1.26,16.04-2.96.11-.28.3-1.62.3-5.01.05-1.47.05-3.14.05-4.91v-.61l4.16-.06v-5.09h-17.56v5.08h5.74l-.07.68c-.28,2.58-1.67,4.44-4.04,5.37-4.16,1.64-10.33-.04-12.1-1.56-2.57-1.87-3.78-5.29-3.78-10.72,0-3.71,1.12-6.56,3.53-8.97,2.32-2.32,6.24-2.66,8.37-2.66,7.01,0,9.42,3.45,10.06,4.7h8.55v-10.48h-6.01l-.69,1.5-.56-.27c-.78-.37-6.58-1.83-10.86-1.83M693.5,515.35c-7.76,0-12.9-1.65-17.2-5.51-3.71-3.54-5.66-8.68-5.66-14.87,0-5.83,2.14-10.67,6.36-14.39,4.19-3.5,10.62-5.5,17.63-5.5,3.8,0,8.91,1.13,10.8,1.73l.52-1.14h8.03v12.95h-10.6l-.15-.4c-.07-.18-1.72-4.3-9.09-4.3-1.56,0-5.42.22-7.5,2.31-2.19,2.19-3.17,4.68-3.17,8.09,0,5.01,1.05,8.11,3.31,9.76,1.57,1.35,7.19,2.83,10.88,1.38,1.72-.68,2.78-1.91,3.15-3.67h-5.56v-7.55h20.02v7.54l-4.16.06c0,1.56,0,3.03-.05,4.33,0,5.2-.4,5.6-.61,5.81-1.98,2.51-12.48,3.37-16.96,3.37"/>
  </g>
  <polygon class="st0" points="744.02 476.23 744.02 482.82 746.55 482.82 746.55 491.24 734.3 491.24 734.3 482.82 736.78 482.82 736.78 476.23 719.67 476.23 719.67 482.82 722.64 482.82 722.64 508.25 719.67 508.25 719.67 514.68 736.94 514.68 736.94 508.25 734.3 508.25 734.3 497.72 746.55 497.72 746.55 508.25 743.96 508.25 743.96 514.68 761.3 514.68 761.3 508.25 758.16 508.25 758.16 482.82 761.19 482.82 761.19 476.23 744.02 476.23"/>
  <path class="st1" d="M744.63,476.85h15.94v5.36h-3.02v26.66h3.13v5.2h-16.1v-5.2h2.59v-11.76h-13.49v11.76h2.64v5.2h-16.05v-5.2h2.97v-26.66h-2.97v-5.36h15.89v5.36h-2.48v9.65h13.49v-9.65h-2.54v-5.36ZM743.4,475.62v7.82h2.54v7.19h-11.02v-7.19h2.48v-7.82h-18.35v7.82h2.97v24.2h-2.97v7.66h18.51v-7.66h-2.64v-9.3h11.02v9.3h-2.59v7.66h18.56v-7.66h-3.13v-24.2h3.02v-7.82h-18.4Z"/>
  <polygon class="st0" points="765.11 476.23 765.11 486.6 773.27 486.6 773.27 483.68 780.23 483.68 780.23 507.93 776.07 507.93 776.07 514.68 796.59 514.68 796.59 507.93 792.43 507.93 792.43 483.68 799.4 483.68 799.4 486.6 807.6 486.6 807.6 476.23 765.11 476.23"/>
  <path class="st1" d="M765.73,476.85h41.26v9.14h-6.98v-2.91h-8.2v25.48h4.16v5.52h-19.29v-5.52h4.16v-25.48h-8.2v2.91h-6.92v-9.14ZM764.5,475.62v11.6h9.39v-2.91h5.73v23.01h-4.16v7.98h21.75v-7.98h-4.16v-23.01h5.73v2.91h9.44v-11.6h-43.73Z"/>
  <g>
    <path class="st0" d="M851.65,503.45c0,4-.92,7.13-5.02,9.12-3.13,1.4-7.88,2-12.04,2-5.4,0-8.21.59-11.02-1.89l-1.08,2h-9.88v-13.28h10.04c0,1.89.86,3.51,2.59,4.8,1.78,1.3,3.89,1.94,6.43,1.94,1.78,0,3.29-.38,4.59-1.19,1.3-.76,1.94-1.73,1.94-2.91,0-1.84-2.27-3.51-6.8-4.97-7.72-2.64-11.82-4.1-12.47-4.37-4.59-2.21-6.86-5.02-6.86-8.37s1.73-5.99,5.18-7.88c3.02-1.57,6.53-2.37,10.69-2.37,4.75,0,7.83-.16,9.99,1.3l1.03-1.14h9.61v11.61h-9.72c-.38-1.67-1.35-3.03-2.86-3.94-1.51-1.03-3.4-1.51-5.62-1.51-1.67,0-3.08.27-4.21.87-1.03.59-1.57,1.29-1.57,2.21,0,1.51,2.32,2.97,6.96,4.37,7.13,2,11.39,3.51,13.07,4.43,4.7,2.32,7.02,5.35,7.02,9.18"/>
    <path class="st1" d="M813.23,514.06h8.9l1.27-2.35.58.51c2.14,1.89,4.22,1.85,8,1.77.8-.02,1.66-.03,2.61-.03,4.66,0,9.07-.73,11.79-1.95,3.86-1.88,4.66-4.78,4.66-8.56s-2.18-6.41-6.68-8.63c-1.82-.99-6.53-2.58-12.96-4.38-5.06-1.53-7.41-3.11-7.41-4.97,0-1.12.61-2.02,1.87-2.74,1.22-.64,2.69-.95,4.52-.95,2.37,0,4.38.54,5.96,1.62,1.47.89,2.5,2.22,2.99,3.84h8.63v-10.38h-8.72l-1.2,1.33-.44-.3c-1.8-1.22-4.4-1.21-8.34-1.19h-1.3c-4.01,0-7.41.76-10.41,2.31-3.26,1.78-4.85,4.18-4.85,7.33s2.19,5.73,6.51,7.82c.62.26,4.79,1.74,12.4,4.35,4.85,1.56,7.22,3.38,7.22,5.55,0,1.42-.76,2.58-2.25,3.45-1.36.85-2.97,1.27-4.9,1.27-2.66,0-4.88-.67-6.79-2.06-1.7-1.28-2.65-2.85-2.82-4.69h-8.84v12.05ZM822.86,515.29h-10.86v-14.51h11.27v.62c0,1.69.79,3.14,2.34,4.31,1.68,1.22,3.67,1.82,6.06,1.82,1.69,0,3.09-.36,4.26-1.1,1.12-.65,1.66-1.43,1.66-2.39,0-1.52-2.21-3.04-6.38-4.38-7.65-2.62-11.85-4.11-12.52-4.39-4.81-2.32-7.24-5.32-7.24-8.94s1.85-6.43,5.5-8.42c3.18-1.65,6.77-2.45,10.99-2.45h1.3c3.87-.02,6.52-.02,8.58,1.12l.87-.96h10.5v12.84h-10.83l-.11-.48c-.35-1.53-1.22-2.73-2.58-3.56-1.4-.95-3.17-1.42-5.3-1.42-1.62,0-2.91.26-3.92.8-1.09.63-1.24,1.22-1.24,1.67,0,.54.64,2,6.53,3.79,6.6,1.85,11.28,3.44,13.18,4.47,4.86,2.4,7.34,5.68,7.34,9.72,0,3.67-.65,7.38-5.37,9.68-2.89,1.29-7.48,2.06-12.31,2.06-.93,0-1.79.02-2.58.03-3.52.07-5.93.12-8.25-1.59l-.9,1.67Z"/>
  </g>
</svg>