<?xml version="1.0" encoding="UTF-8"?>
<svg id="Layer_1" xmlns="http://www.w3.org/2000/svg" version="1.1" viewBox="0 0 1080 1080">
  <!-- Generator: Adobe Illustrator 30.4.0, SVG Export Plug-In . SVG Version: 2.1.4 Build 226)  -->
  <defs>
    <style>
      .st0 {
        fill: #ce0e2d;
      }

      .st1 {
        fill: #fff;
      }
    </style>
  </defs>
  <g>
    <path class="st0" d="M257.7,547.99c0,4-.92,7.14-5.03,9.14-3.14,1.41-7.9,2-12.07,2-5.41,0-8.22.6-11.04-1.89l-1.08,2h-9.9v-13.31h10.06c0,1.89.87,3.52,2.6,4.82,1.79,1.3,3.9,1.95,6.44,1.95,1.79,0,3.3-.38,4.6-1.19,1.3-.76,1.95-1.73,1.95-2.92,0-1.84-2.27-3.52-6.82-4.98-7.74-2.65-11.85-4.12-12.5-4.38-4.6-2.22-6.87-5.03-6.87-8.39s1.73-6.01,5.19-7.9c3.03-1.57,6.55-2.38,10.71-2.38,4.76,0,7.85-.16,10.01,1.3l1.03-1.14h9.63v11.63h-9.74c-.38-1.67-1.35-3.03-2.87-3.95-1.52-1.03-3.41-1.52-5.63-1.52-1.68,0-3.08.27-4.22.86-1.03.59-1.57,1.3-1.57,2.22,0,1.52,2.33,2.97,6.98,4.38,7.14,2,11.42,3.52,13.09,4.44,4.71,2.33,7.03,5.36,7.03,9.2"/>
    <path class="st1" d="M219.22,558.6h8.88l1.29-2.37.6.53c2.13,1.89,4.21,1.84,7.99,1.76.81-.02,1.68-.04,2.63-.04,4.67,0,9.09-.73,11.8-1.94,3.86-1.88,4.65-4.78,4.65-8.56s-2.18-6.41-6.68-8.63c-1.07-.59-4.14-1.92-12.98-4.39-5.09-1.54-7.45-3.13-7.45-5,0-1.13.62-2.04,1.89-2.77,1.23-.64,2.7-.95,4.54-.95,2.39,0,4.4.55,5.99,1.63,1.47.89,2.51,2.21,3,3.84h8.61v-10.35h-8.71l-1.21,1.34-.46-.31c-1.8-1.21-4.4-1.2-8.35-1.19h-1.3c-4.01,0-7.42.76-10.42,2.31-3.26,1.78-4.85,4.18-4.85,7.33s2.19,5.73,6.51,7.81c.52.21,4.29,1.57,12.43,4.35,4.87,1.56,7.25,3.39,7.25,5.58,0,1.43-.76,2.6-2.26,3.47-1.37.86-2.99,1.28-4.92,1.28-2.67,0-4.9-.68-6.82-2.07-1.71-1.28-2.65-2.86-2.83-4.69h-8.81v12.03ZM228.86,559.88h-10.92v-14.59h11.34v.64c0,1.69.79,3.14,2.34,4.3,1.68,1.22,3.66,1.82,6.06,1.82,1.69,0,3.08-.36,4.26-1.09,1.11-.65,1.65-1.43,1.65-2.38,0-1.06-1.11-2.68-6.37-4.37-7.66-2.62-11.87-4.12-12.55-4.4-4.83-2.33-7.27-5.35-7.27-8.98s1.86-6.45,5.53-8.46c3.2-1.66,6.8-2.46,11.02-2.46h1.3c3.87-.02,6.53-.02,8.59,1.12l.86-.95h10.55v12.91h-10.89l-.11-.5c-.35-1.52-1.21-2.72-2.58-3.54-1.4-.95-3.17-1.42-5.29-1.42-1.62,0-2.91.26-3.92.79-1.08.63-1.23,1.21-1.23,1.65,0,.54.64,1.99,6.53,3.77,6.64,1.86,11.33,3.45,13.22,4.49,4.88,2.41,7.36,5.7,7.36,9.76,0,3.69-.65,7.41-5.39,9.72-2.89,1.3-7.5,2.06-12.35,2.06-.94,0-1.8.02-2.6.04-3.51.08-5.93.12-8.24-1.58l-.9,1.66Z"/>
    <path class="st0" d="M303.6,544.58c-.43,6.38-.16,7.52-5.03,11.04-4.11,2.76-8.77,3.68-14.55,3.68-7.52,0-13.42-1.89-17.69-5.74-3.9-3.52-5.84-8.12-5.84-13.79s2.11-10.5,6.28-14.12c4.22-3.63,10.82-5.52,17.42-5.52,4.28,0,10.66,1.4,11.36,1.95l.65-1.3h7.09v11.85h-9.74c-.43-1.14-2.71-4.71-9.74-4.71-2.16,0-6,.27-8.12,2.54-2.22,2.22-3.41,4.98-3.41,8.6,0,4.49.49,7.74,3.24,9.96,2.6,1.95,15.64,3.89,16.5-4.38l11.58-.05Z"/>
    <path class="st1" d="M284.18,520.77c-6.74,0-13.1,2-17.01,5.36-4.01,3.5-6.05,8.08-6.05,13.64s1.9,9.95,5.63,13.32c4.11,3.7,9.92,5.57,17.26,5.57,6.14,0,10.52-1.1,14.2-3.57,4.27-3.08,4.33-4.03,4.67-9.3l.04-.56-10.34.05c-.42,2.33-1.84,4.09-4.14,5.1-4.52,1.98-11.33.64-13.3-.84-2.92-2.35-3.5-5.75-3.5-10.47,0-3.67,1.18-6.64,3.6-9.06,1.68-1.81,4.57-2.73,8.57-2.73,7.05,0,9.49,3.44,10.15,4.71h8.69v-10.57h-6.05l-.82,1.64-.62-.47c-.6-.4-6.71-1.81-10.97-1.81M284.02,559.94c-7.67,0-13.77-1.99-18.12-5.9-4.02-3.63-6.06-8.43-6.06-14.27s2.19-10.86,6.5-14.61c4.14-3.55,10.8-5.67,17.84-5.67,3.59,0,9.04,1.02,11.06,1.75l.55-1.11h8.12v13.13h-10.82l-.16-.41c-.07-.18-1.73-4.3-9.14-4.3-3.58,0-6.22.81-7.65,2.34-2.18,2.19-3.24,4.85-3.24,8.17,0,4.46.49,7.43,3.01,9.46,1.65,1.24,8.02,2.41,12,.68,2.07-.9,3.24-2.46,3.46-4.63l.06-.57,12.84-.06-.13,1.93c-.34,5.37-.43,6.82-5.21,10.27-3.92,2.63-8.52,3.8-14.93,3.8"/>
  </g>
  <path class="st0" d="M331.93,541.55l-3.52-11.63-4.11,11.63h7.63ZM350.54,552.86l-.05,6.38h-19.15v-6.38h4.71l-2.06-6.55h-11.31l-2.44,6.55h4.71v6.38h-16.56v-6.38h3.84l8.55-25.7h-1.57v-6.44h20.02v6.44h-1.79l9.14,25.7h3.95Z"/>
  <path class="st1" d="M325.2,540.91h5.86l-2.7-8.94-3.16,8.94ZM332.79,542.19h-9.4l5.06-14.33,4.33,14.33ZM331.97,558.6h17.88l.04-5.1h-3.76l-9.6-26.98h2.05v-5.16h-18.74v5.16h1.82l-8.98,26.98h-3.66v5.1h15.28v-5.1h-4.99l2.91-7.83h12.22l2.46,7.83h-4.94v5.1ZM351.12,559.88h-20.43v-7.66h4.48l-1.66-5.27h-10.39l-1.96,5.27h4.43v7.66h-17.84v-7.66h4.02l8.12-24.42h-1.32v-7.72h21.3v7.72h-1.52l8.69,24.42h4.14l-.06,7.66Z"/>
  <g>
    <path class="st0" d="M382.38,531.65c0-1.14-.38-2.06-1.08-2.76-1.08-1.14-2.65-1.67-4.65-1.67h-6.22v8.98h4.87c2.43,0,4.33-.48,5.57-1.52,1.03-.81,1.51-1.84,1.51-3.03M378.43,552.81h3.79l-6.55-10.5h-5.47v10.5h3.08v6.44h-18.56v-6.44h3.03v-25.59h-3.03v-6.49h26.13c4.38,0,7.9,1.03,10.55,3.14,2.49,2.06,3.73,4.6,3.73,7.63,0,4.38-2.71,7.57-8.12,9.58l7.68,11.74h3.52l.06,6.44h-19.91l.05-6.44Z"/>
    <path class="st1" d="M371.06,535.55h4.23c2.33,0,4.07-.46,5.16-1.37.87-.68,1.28-1.51,1.28-2.53,0-.94-.3-1.71-.89-2.31-.95-1-2.33-1.49-4.2-1.49h-5.58v7.7ZM375.29,536.84h-5.51v-10.26h6.86c2.21,0,3.93.63,5.12,1.87.83.83,1.26,1.92,1.26,3.2,0,1.42-.59,2.61-1.76,3.53-1.32,1.09-3.33,1.65-5.97,1.65M379.02,558.6h18.62l-.04-5.16h-3.23l-8.31-12.7.75-.28c5.18-1.92,7.7-4.86,7.7-8.98,0-2.85-1.15-5.19-3.5-7.14-2.49-1.98-5.9-2.99-10.14-2.99h-25.49v5.21h3.03v26.87h-3.03v5.16h17.28v-5.16h-3.08v-11.78h6.46l7.35,11.78h-4.31l-.04,5.16ZM398.93,559.88h-21.2l.06-7.72h3.27l-5.75-9.22h-4.47v9.22h3.08v7.72h-19.84v-7.72h3.03v-24.31h-3.03v-7.77h26.77c4.53,0,8.22,1.1,10.95,3.28,2.64,2.18,3.97,4.92,3.97,8.13,0,4.45-2.62,7.77-7.79,9.89l7.06,10.79h3.8l.07,7.72Z"/>
  </g>
  <polygon class="st0" points="438.95 546.8 438.95 559.24 401.99 559.24 401.99 552.75 406.26 552.75 406.26 527.32 402.04 527.32 402.04 520.72 421.68 520.72 421.68 527.32 417.57 527.32 417.57 552.75 430.45 552.75 430.45 546.8 438.95 546.8"/>
  <path class="st1" d="M402.63,558.6h35.67v-11.17h-7.22v5.95h-14.15v-26.71h4.11v-5.32h-18.36v5.32h4.22v26.71h-4.27v5.21ZM439.59,559.88h-38.23v-7.77h4.27v-24.15h-4.22v-7.88h20.92v7.88h-4.11v24.15h11.6v-5.95h9.78v13.73Z"/>
  <polygon class="st0" points="483.66 548.1 483.66 559.24 443.13 559.24 443.13 552.53 447.19 552.53 447.19 527.43 443.13 527.43 443.13 520.72 483.66 520.72 483.66 531.65 474.51 531.65 474.51 527.32 459.69 527.32 459.69 536.19 471.65 536.19 471.65 542.74 459.69 542.74 459.69 552.75 474.51 552.75 474.51 548.1 483.66 548.1"/>
  <path class="st1" d="M443.77,558.6h39.25v-9.87h-7.87v4.65h-16.1v-11.29h11.96v-5.27h-11.96v-10.15h16.1v4.33h7.87v-9.65h-39.25v5.43h4.06v26.38h-4.06v5.43ZM484.3,559.88h-41.81v-7.99h4.06v-23.82h-4.06v-7.99h41.81v12.21h-10.43v-4.33h-13.55v7.59h11.96v7.83h-11.96v8.73h13.55v-4.65h10.43v12.43Z"/>
  <polygon class="st0" points="531.19 520.72 531.19 531.11 522.97 531.11 522.97 528.19 515.98 528.19 515.98 552.48 520.15 552.48 520.15 559.24 499.59 559.24 499.59 552.48 503.76 552.48 503.76 528.19 496.78 528.19 496.78 531.11 488.61 531.11 488.61 520.72 531.19 520.72"/>
  <path class="st1" d="M500.23,558.6h19.28v-5.48h-4.17v-25.57h8.26v2.92h6.94v-9.11h-41.3v9.11h6.89v-2.92h8.26v25.57h-4.17v5.48ZM520.79,559.88h-21.84v-8.04h4.17v-23.01h-5.7v2.92h-9.45v-11.67h43.86v11.67h-9.5v-2.92h-5.7v23.01h4.17v8.04Z"/>
  <path class="st0" d="M552.02,520.65v6.72h4.01v25.26h-4.01v6.61h19.02v-6.61h-3.79v-25.26h3.79v-6.72h-19.02ZM577.66,520.65v6.72h4.01l-14.09,11.65,13.06,13.6h-3.69v6.61h20.22v-6.61h-2.93l-14.04-14.69,12.14-10.57h4.01v-6.72h-18.7Z"/>
  <path class="st1" d="M552.64,521.27h17.79v5.49h-3.79v26.49h3.79v5.38h-17.79v-5.38h4.01v-26.49h-4.01v-5.49ZM578.27,521.27h17.46v5.49h-3.62l-12.8,11.15,14.67,15.35h2.57v5.38h-18.98v-5.38h4.52l-13.61-14.17,14.9-12.32h-5.11v-5.49ZM577.04,520.04v7.96h2.91l-12.08,9.99v-9.99h3.79v-7.96h-20.26v7.96h4.01v24.02h-4.01v7.85h20.26v-7.85h-3.79v-11.79l11.32,11.79h-2.85v7.85h21.45v-7.85h-3.28l-13.41-14.03,11.48-9.99h4.4v-7.96h-19.94Z"/>
  <polygon class="st0" points="627.72 520.65 627.72 527.16 632.16 527.16 632.11 540.76 617.1 520.65 601 520.65 601 527.32 604.58 527.32 604.58 552.85 601 552.9 601 559.25 616.99 559.25 616.99 552.85 613.63 552.85 613.63 534.75 630.32 559.25 639.37 559.25 639.37 527.16 644.2 527.16 644.2 520.65 627.72 520.65"/>
  <path class="st1" d="M628.34,521.27h15.24v5.27h-4.83v32.09h-8.11l-17.64-25.88v20.73h3.36v5.16h-14.75v-5.12l3.58-.05v-26.76h-3.58v-5.43h15.17l15.93,21.34.06-16.07h-4.45v-5.27ZM627.1,520.04v7.74h4.44l-.04,11.14-14.09-18.88h-17.03v7.9h3.58v24.3l-3.58.05v7.57h17.22v-7.63h-3.36v-15.48l15.75,23.11h10v-32.09h4.82v-7.74h-17.71Z"/>
  <polygon class="st0" points="647.92 520.65 647.92 527.38 652.74 527.38 652.74 552.52 647.92 552.52 647.92 559.25 668.79 559.25 668.79 552.52 663.96 552.52 663.96 527.38 668.79 527.38 668.79 520.65 647.92 520.65"/>
  <path class="st1" d="M648.54,521.27h19.63v5.49h-4.82v26.38h4.82v5.49h-19.63v-5.49h4.82v-26.38h-4.82v-5.49ZM647.3,520.04v7.96h4.82v23.91h-4.82v7.96h22.1v-7.96h-4.82v-23.91h4.82v-7.96h-22.1Z"/>
  <g>
    <path class="st0" d="M716.37,539.35v6.34l-4.17.06c0,1.79,0,3.47-.05,4.93,0,2.55-.11,5.09-.43,5.42-1.68,2.12-10.95,3.2-16.59,3.2-7.48,0-12.63-1.57-16.85-5.37-3.79-3.63-5.48-8.83-5.48-14.47s2.06-10.35,6.18-13.98c4.23-3.52,10.62-5.36,17.29-5.36,4.28,0,10.25,1.46,11.17,1.9l.59-1.3h7.05v11.76h-9.59c-.43-1.14-2.71-4.71-9.7-4.71-2.01,0-5.8.33-7.97,2.5-2.22,2.22-3.36,4.88-3.36,8.56,0,4.33.76,8.24,3.58,10.3,2.44,2.11,14.31,4.61,15.17-3.42h-5.69v-6.34h18.86Z"/>
    <path class="st1" d="M711.21,555.74,696.26,520.73c-6.76,0-12.91,1.9-16.89,5.22-3.95,3.48-5.96,8.03-5.96,13.51,0,5.87,1.83,10.72,5.28,14.02,4.05,3.64,8.97,5.2,16.43,5.2,6.49,0,14.75-1.27,16.1-2.97.12-.28.3-1.63.3-5.03.05-1.48.05-3.16.05-4.93v-.61l4.17-.06v-5.11h-17.62v5.1h5.76l-.07.68c-.28,2.59-1.68,4.45-4.05,5.39-4.17,1.64-10.37-.04-12.14-1.57-2.58-1.88-3.79-5.31-3.79-10.77,0-3.73,1.13-6.59,3.54-9,2.33-2.33,6.26-2.68,8.4-2.68,7.03,0,9.45,3.46,10.1,4.71h8.58v-10.52h-6.03l-.69,1.51-.57-.27c-.78-.37-6.61-1.84-10.9-1.84M695.12,559.92c-7.79,0-12.95-1.65-17.27-5.53-3.72-3.56-5.68-8.72-5.68-14.93,0-5.85,2.15-10.71,6.39-14.45,4.21-3.51,10.66-5.52,17.7-5.52,3.82,0,8.95,1.13,10.84,1.74l.52-1.14h8.06v13h-10.64l-.15-.4c-.07-.18-1.73-4.32-9.13-4.32-1.57,0-5.44.23-7.53,2.31-2.2,2.2-3.18,4.7-3.18,8.13,0,5.03,1.06,8.14,3.33,9.8,1.57,1.36,7.22,2.84,10.92,1.38,1.73-.68,2.79-1.92,3.17-3.68h-5.59v-7.57h20.1v7.57l-4.17.06c0,1.56,0,3.04-.05,4.35,0,5.22-.4,5.62-.62,5.83-1.99,2.52-12.53,3.38-17.02,3.38"/>
  </g>
  <polygon class="st0" points="745.83 520.65 745.83 527.27 748.38 527.27 748.38 535.72 736.08 535.72 736.08 527.27 738.57 527.27 738.57 520.65 721.39 520.65 721.39 527.27 724.37 527.27 724.37 552.79 721.39 552.79 721.39 559.25 738.73 559.25 738.73 552.79 736.08 552.79 736.08 542.22 748.38 542.22 748.38 552.79 745.78 552.79 745.78 559.25 763.18 559.25 763.18 552.79 760.03 552.79 760.03 527.27 763.07 527.27 763.07 520.65 745.83 520.65"/>
  <path class="st1" d="M746.45,521.27h16v5.38h-3.04v26.76h3.14v5.22h-16.16v-5.22h2.6v-11.81h-13.54v11.81h2.65v5.22h-16.11v-5.22h2.98v-26.76h-2.98v-5.38h15.95v5.38h-2.49v9.69h13.54v-9.69h-2.55v-5.38ZM745.22,520.04v7.85h2.55v7.22h-11.07v-7.22h2.49v-7.85h-18.42v7.85h2.98v24.29h-2.98v7.69h18.58v-7.69h-2.65v-9.33h11.07v9.33h-2.6v7.69h18.63v-7.69h-3.14v-24.29h3.04v-7.85h-18.47Z"/>
  <polygon class="st0" points="767.01 520.65 767.01 531.06 775.19 531.06 775.19 528.13 782.19 528.13 782.19 552.47 778.01 552.47 778.01 559.25 798.61 559.25 798.61 552.47 794.43 552.47 794.43 528.13 801.43 528.13 801.43 531.06 809.66 531.06 809.66 520.65 767.01 520.65"/>
  <path class="st1" d="M767.63,521.27h41.42v9.17h-7v-2.93h-8.23v25.57h4.17v5.54h-19.36v-5.54h4.17v-25.57h-8.23v2.93h-6.95v-9.17ZM766.39,520.04v11.64h9.42v-2.93h5.76v23.1h-4.17v8.01h21.83v-8.01h-4.17v-23.1h5.76v2.93h9.47v-11.64h-43.89Z"/>
  <g>
    <path class="st0" d="M853.88,547.97c0,4.01-.92,7.15-5.04,9.16-3.14,1.41-7.91,2.01-12.09,2.01-5.42,0-8.24.6-11.06-1.9l-1.08,2h-9.92v-13.33h10.08c0,1.9.87,3.52,2.6,4.82,1.79,1.3,3.9,1.95,6.45,1.95,1.79,0,3.3-.38,4.61-1.19,1.3-.76,1.95-1.73,1.95-2.93,0-1.84-2.28-3.52-6.83-4.99-7.75-2.65-11.87-4.12-12.52-4.39-4.61-2.22-6.88-5.04-6.88-8.4s1.73-6.02,5.2-7.91c3.04-1.57,6.56-2.38,10.73-2.38,4.77,0,7.86-.16,10.03,1.3l1.03-1.14h9.65v11.66h-9.76c-.38-1.68-1.36-3.04-2.87-3.96-1.52-1.03-3.42-1.52-5.64-1.52-1.68,0-3.09.27-4.23.87-1.03.59-1.57,1.3-1.57,2.22,0,1.52,2.33,2.98,6.99,4.39,7.15,2,11.44,3.52,13.12,4.44,4.72,2.33,7.05,5.37,7.05,9.22"/>
    <path class="st1" d="M815.31,558.63h8.93l1.28-2.36.58.52c2.15,1.9,4.24,1.86,8.03,1.78.8-.02,1.67-.04,2.62-.04,4.68,0,9.1-.73,11.83-1.95,3.88-1.89,4.68-4.8,4.68-8.59s-2.19-6.43-6.7-8.66c-1.82-.99-6.56-2.59-13.01-4.4-5.08-1.54-7.44-3.12-7.44-4.99,0-1.12.62-2.02,1.88-2.75,1.23-.65,2.7-.95,4.54-.95,2.38,0,4.4.55,5.98,1.62,1.48.9,2.51,2.23,3,3.85h8.66v-10.42h-8.76l-1.21,1.34-.45-.3c-1.81-1.22-4.42-1.21-8.37-1.2h-1.31c-4.02,0-7.44.76-10.45,2.32-3.27,1.79-4.87,4.2-4.87,7.36s2.2,5.75,6.53,7.85c.62.26,4.81,1.74,12.45,4.36,4.87,1.57,7.25,3.39,7.25,5.57,0,1.42-.76,2.59-2.26,3.46-1.37.86-2.98,1.28-4.92,1.28-2.67,0-4.9-.68-6.81-2.07-1.71-1.28-2.66-2.86-2.83-4.7h-8.87v12.1ZM824.98,559.86h-10.9v-14.57h11.32v.62c0,1.7.79,3.16,2.35,4.33,1.69,1.23,3.68,1.83,6.08,1.83,1.7,0,3.1-.36,4.28-1.1,1.12-.66,1.66-1.44,1.66-2.4,0-1.53-2.21-3.05-6.4-4.4-7.68-2.63-11.9-4.13-12.57-4.41-4.83-2.33-7.26-5.34-7.26-8.97s1.86-6.45,5.53-8.45c3.2-1.66,6.8-2.46,11.03-2.46h1.3c3.88-.02,6.55-.02,8.61,1.12l.87-.96h10.54v12.89h-10.87l-.11-.48c-.35-1.54-1.22-2.74-2.59-3.57-1.4-.95-3.18-1.43-5.32-1.43-1.63,0-2.92.26-3.94.8-1.1.64-1.24,1.23-1.24,1.67,0,.55.64,2.01,6.55,3.8,6.62,1.85,11.33,3.45,13.23,4.49,4.88,2.41,7.37,5.7,7.37,9.76,0,3.68-.65,7.41-5.39,9.71-2.9,1.3-7.51,2.07-12.36,2.07-.94,0-1.8.02-2.59.03-3.53.08-5.96.12-8.28-1.6l-.9,1.67Z"/>
  </g>
</svg>